<svg xmlns="http://www.w3.org/2000/svg" viewBox="45 35 175 195" fill="none"><path d="M62.23 194.48C50.42 187.54 43.13 174.91 43.02 161.21L42.86 140.56L43.02 119.92C43.13 106.22 50.42 93.58 62.23 86.64L80.03 76.17L97.99 65.99C109.91 59.24 124.5 59.24 136.41 65.99L154.38 76.18L172.17 86.64C183.98 93.58 191.28 106.22 191.38 119.92L191.55 140.56L191.38 161.21C191.28 174.91 183.98 187.54 172.17 194.48L154.38 204.95L136.41 215.13C124.5 221.88 109.91 221.88 97.99 215.13L80.03 204.95L62.23 194.48Z" fill="url(#g0)" stroke="#fff" stroke-width=".6"/>
  <path d="M81.07 184.13C66.91 175.8 58.17 160.65 58.04 144.23L57.89 125.09L58.04 105.95C58.17 89.53 66.91 74.38 81.07 66.06L97.57 56.35L114.22 46.92C128.51 38.82 146 38.82 160.29 46.92L176.94 56.35L193.44 66.06C207.6 74.38 216.35 89.53 216.48 105.95L216.63 125.09L216.48 144.23C216.35 160.65 207.6 175.8 193.44 184.13L176.94 193.83L160.29 203.27C146 211.36 128.51 211.36 114.22 203.27L97.57 193.83L81.07 184.13Z" fill="url(#g1)" fill-opacity=".85" stroke="#fff" stroke-width=".6"/>
  <path fill-rule="evenodd" d="M168.07 87.13C175.27 93.79 181.32 105.06 182.19 111.29C183.05 117.52 182.51 121.88 181.2 127.73C179.88 133.58 180.79 139.15 184.19 144.02C187.58 148.9 189.81 151.7 185.88 154.06C181.95 156.41 178.62 156.6 179.56 158.87C180.49 161.14 180.85 162.11 179.97 163.41C179.21 164.55 179.07 166.11 179.41 167.43C179.62 168.27 179.65 169.17 179.11 169.79C177.83 171.25 175.61 169.53 174.97 172.8C174.34 176.07 175.79 180.27 171.53 182.3C167.27 184.33 157.12 181.24 153.1 179.96C149.09 178.69 145 178.39 140.58 187.82C138.76 191.71 136.88 194.6 135.53 197.64C134.28 200.45 131.3 202.43 128.39 201.43C127.23 201.04 125.95 200.57 124.64 200.04C117 196.97 105.36 190.24 99.22 186.58C96.88 185.19 96.07 182.23 97.26 179.77C100.76 172.55 101.31 169.46 100.01 161.99C98.36 152.5 88.46 147.82 86.35 130.22C84.25 112.62 87.4 86.88 110.39 77.82C133.37 68.75 157.07 76.96 168.07 87.13Z" fill="url(#g2)"/>
<defs>
    <linearGradient id="g0" x1="64.7" y1="88.9" x2="165" y2="217.4" gradientUnits="userSpaceOnUse">
      <stop stop-color="#FFEBDD"/>
      <stop offset="1" stop-color="#FFBCA1"/>
    </linearGradient>
    <linearGradient id="g1" x1="183" y1="204.4" x2="91.5" y2="45.8" gradientUnits="userSpaceOnUse">
      <stop stop-color="#B7D7FF"/>
      <stop offset="1" stop-color="#DAC1FD"/>
    </linearGradient>
    <linearGradient id="g2" x1="128.6" y1="149" x2="188.1" y2="150.8" gradientUnits="userSpaceOnUse">
      <stop stop-color="white" stop-opacity="0"/>
      <stop offset="1" stop-color="#FFFDF6"/>
    </linearGradient>
</defs></svg>
